# xmcd
#
# Track frame offsets: 
#        150
#        10494
#        21669
#        32214
#        41117
#        52647
#        65739
#        75555
#        87580
#        98339
#        107753
#        119823
#
# Disc length: 1746 seconds
#
# Revision: 0
# Processed by: cddbd v1.5.2PL0 Copyright (c) Steve Scherf et al.
# Submitted via: ExactAudioCopy v1.0b1
#
DISCID=9f06d00c
DTITLE=Al Dean and The Allstars - From Texas to Nashville
DYEAR=1967
DGENRE=Country
TTITLE0=It Looks Up
TTITLE1=Change Your Ways of Living
TTITLE2=Cotton Eyed Joe (Instrumental)
TTITLE3=Ruff Neck Pay Check
TTITLE4=A Jole Blon (Instrumental)
TTITLE5=They'll Come Back
TTITLE6=The Girl of My Dreams
TTITLE7=Jalisco (Instrumental)
TTITLE8=Cigareets and Whuskey
TTITLE9=One Heart Beat From The Blues
TTITLE10=Long Lonely Nights
TTITLE11=Just One of the Boys
EXTD=
EXTT0=
EXTT1=
EXTT2=
EXTT3=
EXTT4=
EXTT5=
EXTT6=
EXTT7=
EXTT8=
EXTT9=
EXTT10=
EXTT11=
PLAYORDER=
